<svg id="visual" viewBox="0 0 960 540" width="960" height="540" xmlns="http://www.w3.org/2000/svg" xmlns:xlink="http://www.w3.org/1999/xlink" version="1.1"><rect x="0" y="0" width="960" height="540" fill="#0058b0"></rect><path d="M0 200L22.8 198.7C45.7 197.3 91.3 194.7 137 198.2C182.7 201.7 228.3 211.3 274 206.7C319.7 202 365.3 183 411.2 166.2C457 149.3 503 134.7 548.8 127.3C594.7 120 640.3 120 686 123.8C731.7 127.7 777.3 135.3 823 136.7C868.7 138 914.3 133 937.2 130.5L960 128L960 0L937.2 0C914.3 0 868.7 0 823 0C777.3 0 731.7 0 686 0C640.3 0 594.7 0 548.8 0C503 0 457 0 411.2 0C365.3 0 319.7 0 274 0C228.3 0 182.7 0 137 0C91.3 0 45.7 0 22.8 0L0 0Z" fill="#64af79"></path><path d="M0 22L22.8 42.3C45.7 62.7 91.3 103.3 137 112C182.7 120.7 228.3 97.3 274 93.7C319.7 90 365.3 106 411.2 97.8C457 89.7 503 57.3 548.8 44.3C594.7 31.3 640.3 37.7 686 50.7C731.7 63.7 777.3 83.3 823 79.8C868.7 76.3 914.3 49.7 937.2 36.3L960 23L960 0L937.2 0C914.3 0 868.7 0 823 0C777.3 0 731.7 0 686 0C640.3 0 594.7 0 548.8 0C503 0 457 0 411.2 0C365.3 0 319.7 0 274 0C228.3 0 182.7 0 137 0C91.3 0 45.7 0 22.8 0L0 0Z" fill="#f99490"></path></svg>