<svg id="visual" viewBox="0 0 960 540" width="960" height="540" xmlns="http://www.w3.org/2000/svg" xmlns:xlink="http://www.w3.org/1999/xlink" version="1.1"><rect x="0" y="0" width="960" height="540" fill="#0058b0"></rect><path d="M0 122L22.8 119.8C45.7 117.7 91.3 113.3 137 124.8C182.7 136.3 228.3 163.7 274 178.3C319.7 193 365.3 195 411.2 202.8C457 210.7 503 224.3 548.8 231.2C594.7 238 640.3 238 686 212.5C731.7 187 777.3 136 823 131.7C868.7 127.3 914.3 169.7 937.2 190.8L960 212L960 0L937.2 0C914.3 0 868.7 0 823 0C777.3 0 731.7 0 686 0C640.3 0 594.7 0 548.8 0C503 0 457 0 411.2 0C365.3 0 319.7 0 274 0C228.3 0 182.7 0 137 0C91.3 0 45.7 0 22.8 0L0 0Z" fill="#64af79"></path><path d="M0 75L22.8 69.3C45.7 63.7 91.3 52.3 137 48.2C182.7 44 228.3 47 274 64C319.7 81 365.3 112 411.2 123C457 134 503 125 548.8 121.2C594.7 117.3 640.3 118.7 686 115C731.7 111.3 777.3 102.7 823 91.3C868.7 80 914.3 66 937.2 59L960 52L960 0L937.2 0C914.3 0 868.7 0 823 0C777.3 0 731.7 0 686 0C640.3 0 594.7 0 548.8 0C503 0 457 0 411.2 0C365.3 0 319.7 0 274 0C228.3 0 182.7 0 137 0C91.3 0 45.7 0 22.8 0L0 0Z" fill="#f99490"></path></svg>