<svg id="visual" viewBox="0 0 960 540" width="960" height="540" xmlns="http://www.w3.org/2000/svg" xmlns:xlink="http://www.w3.org/1999/xlink" version="1.1"><rect x="0" y="0" width="960" height="540" fill="#004c99"></rect><path d="M0 163L22.8 165.8C45.7 168.7 91.3 174.3 137 167.7C182.7 161 228.3 142 274 135.3C319.7 128.7 365.3 134.3 411.2 139C457 143.7 503 147.3 548.8 139.3C594.7 131.3 640.3 111.7 686 114.7C731.7 117.7 777.3 143.3 823 160.2C868.7 177 914.3 185 937.2 189L960 193L960 0L937.2 0C914.3 0 868.7 0 823 0C777.3 0 731.7 0 686 0C640.3 0 594.7 0 548.8 0C503 0 457 0 411.2 0C365.3 0 319.7 0 274 0C228.3 0 182.7 0 137 0C91.3 0 45.7 0 22.8 0L0 0Z" fill="#64af79"></path><path d="M0 32L22.8 53.3C45.7 74.7 91.3 117.3 137 127C182.7 136.7 228.3 113.3 274 94C319.7 74.7 365.3 59.3 411.2 51.3C457 43.3 503 42.7 548.8 38.5C594.7 34.3 640.3 26.7 686 33.2C731.7 39.7 777.3 60.3 823 67.8C868.7 75.3 914.3 69.7 937.2 66.8L960 64L960 0L937.2 0C914.3 0 868.7 0 823 0C777.3 0 731.7 0 686 0C640.3 0 594.7 0 548.8 0C503 0 457 0 411.2 0C365.3 0 319.7 0 274 0C228.3 0 182.7 0 137 0C91.3 0 45.7 0 22.8 0L0 0Z" fill="#f99490"></path></svg>