<svg id="visual" viewBox="0 0 960 540" width="960" height="540" xmlns="http://www.w3.org/2000/svg" xmlns:xlink="http://www.w3.org/1999/xlink" version="1.1"><rect x="0" y="0" width="960" height="540" fill="#00000000"></rect><path d="M0 386L26.7 362.8C53.3 339.7 106.7 293.3 160 260.7C213.3 228 266.7 209 320 205.5C373.3 202 426.7 214 480 211.7C533.3 209.3 586.7 192.7 640 194.3C693.3 196 746.7 216 800 237.7C853.3 259.3 906.7 282.7 933.3 294.3L960 306L960 541L933.3 541C906.7 541 853.3 541 800 541C746.7 541 693.3 541 640 541C586.7 541 533.3 541 480 541C426.7 541 373.3 541 320 541C266.7 541 213.3 541 160 541C106.7 541 53.3 541 26.7 541L0 541Z" fill="#ff00ee"></path><path d="M0 399L26.7 412.3C53.3 425.7 106.7 452.3 160 466.8C213.3 481.3 266.7 483.7 320 468.3C373.3 453 426.7 420 480 394.2C533.3 368.3 586.7 349.7 640 350C693.3 350.3 746.7 369.7 800 378.7C853.3 387.7 906.7 386.3 933.3 385.7L960 385L960 541L933.3 541C906.7 541 853.3 541 800 541C746.7 541 693.3 541 640 541C586.7 541 533.3 541 480 541C426.7 541 373.3 541 320 541C266.7 541 213.3 541 160 541C106.7 541 53.3 541 26.7 541L0 541Z" fill="#00ff33"></path></svg>