<svg id="visual" viewBox="0 0 960 540" width="960" height="540" xmlns="http://www.w3.org/2000/svg" xmlns:xlink="http://www.w3.org/1999/xlink" version="1.1"><rect x="0" y="0" width="960" height="540" fill="#00000000"></rect><path d="M0 398L26.7 371.5C53.3 345 106.7 292 160 268.3C213.3 244.7 266.7 250.3 320 266.2C373.3 282 426.7 308 480 326.7C533.3 345.3 586.7 356.7 640 335.8C693.3 315 746.7 262 800 234C853.3 206 906.7 203 933.3 201.5L960 200L960 541L933.3 541C906.7 541 853.3 541 800 541C746.7 541 693.3 541 640 541C586.7 541 533.3 541 480 541C426.7 541 373.3 541 320 541C266.7 541 213.3 541 160 541C106.7 541 53.3 541 26.7 541L0 541Z" fill="#ff00ee"></path><path d="M0 442L26.7 437.5C53.3 433 106.7 424 160 400.5C213.3 377 266.7 339 320 345.7C373.3 352.3 426.7 403.7 480 430.5C533.3 457.3 586.7 459.7 640 457.7C693.3 455.7 746.7 449.3 800 447.2C853.3 445 906.7 447 933.3 448L960 449L960 541L933.3 541C906.7 541 853.3 541 800 541C746.7 541 693.3 541 640 541C586.7 541 533.3 541 480 541C426.7 541 373.3 541 320 541C266.7 541 213.3 541 160 541C106.7 541 53.3 541 26.7 541L0 541Z" fill="#00ff33"></path></svg>