<svg height="540" viewBox="0 0 960 540" width="960" xmlns="http://www.w3.org/2000/svg"><path d="m0 0h960v540h-960z" fill="none"/><path d="m0 309 26.7-21.5c26.6-21.5 80-64.5 133.3-76.3 53.3-11.9 106.7 7.5 160 19s106.7 15.1 160 33.3 106.7 50.8 160 57 106.7-14.2 160-21.8c53.3-7.7 106.7-2.7 133.3-.2l26.7 2.5v240h-26.7c-26.6 0-80 0-133.3 0s-106.7 0-160 0-106.7 0-160 0-106.7 0-160 0-106.7 0-160 0-106.7 0-133.3 0h-26.7z" fill="#f0e"/><path d="m0 475 26.7-3.8c26.6-3.9 80-11.5 133.3-35.9 53.3-24.3 106.7-65.3 160-69.5 53.3-4.1 106.7 28.5 160 55.4 53.3 26.8 106.7 47.8 160 51.5 53.3 3.6 106.7-10 160-27.7s106.7-39.3 133.3-50.2l26.7-10.8v157h-26.7c-26.6 0-80 0-133.3 0s-106.7 0-160 0-106.7 0-160 0-106.7 0-160 0-106.7 0-160 0-106.7 0-133.3 0h-26.7z" fill="#0f3"/></svg>