<svg height="540" viewBox="0 0 960 540" width="960" xmlns="http://www.w3.org/2000/svg"><path d="m0 0h960v540h-960z" fill="none"/><path d="m0 353 26.7-21.3c26.6-21.4 80-64 133.3-91.9 53.3-27.8 106.7-40.8 160-32.1 53.3 8.6 106.7 39 160 46.6 53.3 7.7 106.7-7.3 160-13.1 53.3-5.9 106.7-2.5 160 24.1 53.3 26.7 106.7 76.7 133.3 101.7l26.7 25v149h-26.7c-26.6 0-80 0-133.3 0s-106.7 0-160 0-106.7 0-160 0-106.7 0-160 0-106.7 0-160 0-106.7 0-133.3 0h-26.7z" fill="#f0e"/><path d="m0 472 26.7-23.8c26.6-23.9 80-71.5 133.3-94.5s106.7-21.4 160-13.9 106.7 20.9 160 39.9 106.7 43.6 160 34.1 106.7-53.1 160-56c53.3-2.8 106.7 35.2 133.3 54.2l26.7 19v110h-26.7c-26.6 0-80 0-133.3 0s-106.7 0-160 0-106.7 0-160 0-106.7 0-160 0-106.7 0-160 0-106.7 0-133.3 0h-26.7z" fill="#0f3"/></svg>