<svg id="visual" viewBox="0 0 960 540" width="960" height="540" xmlns="http://www.w3.org/2000/svg" xmlns:xlink="http://www.w3.org/1999/xlink" version="1.1"><rect x="0" y="0" width="960" height="540" fill="#00000000"></rect><path d="M0 246L26.7 260C53.3 274 106.7 302 160 294C213.3 286 266.7 242 320 216.3C373.3 190.7 426.7 183.3 480 183.7C533.3 184 586.7 192 640 214.5C693.3 237 746.7 274 800 289.7C853.3 305.3 906.7 299.7 933.3 296.8L960 294L960 541L933.3 541C906.7 541 853.3 541 800 541C746.7 541 693.3 541 640 541C586.7 541 533.3 541 480 541C426.7 541 373.3 541 320 541C266.7 541 213.3 541 160 541C106.7 541 53.3 541 26.7 541L0 541Z" fill="#ff00ee"></path><path d="M0 358L26.7 373.2C53.3 388.3 106.7 418.7 160 446C213.3 473.3 266.7 497.7 320 508.7C373.3 519.7 426.7 517.3 480 484.5C533.3 451.7 586.7 388.3 640 367.7C693.3 347 746.7 369 800 370C853.3 371 906.7 351 933.3 341L960 331L960 541L933.3 541C906.7 541 853.3 541 800 541C746.7 541 693.3 541 640 541C586.7 541 533.3 541 480 541C426.7 541 373.3 541 320 541C266.7 541 213.3 541 160 541C106.7 541 53.3 541 26.7 541L0 541Z" fill="#00ff33"></path></svg>