<svg id="visual" viewBox="0 0 960 540" width="960" height="540" xmlns="http://www.w3.org/2000/svg" xmlns:xlink="http://www.w3.org/1999/xlink" version="1.1"><rect x="0" y="0" width="960" height="540" fill="#00000000"></rect><path d="M0 371L26.7 369.7C53.3 368.3 106.7 365.7 160 370.2C213.3 374.7 266.7 386.3 320 388.2C373.3 390 426.7 382 480 359.7C533.3 337.3 586.7 300.7 640 279.2C693.3 257.7 746.7 251.3 800 236.8C853.3 222.3 906.7 199.7 933.3 188.3L960 177L960 541L933.3 541C906.7 541 853.3 541 800 541C746.7 541 693.3 541 640 541C586.7 541 533.3 541 480 541C426.7 541 373.3 541 320 541C266.7 541 213.3 541 160 541C106.7 541 53.3 541 26.7 541L0 541Z" fill="#ff00ee"></path><path d="M0 338L26.7 342.8C53.3 347.7 106.7 357.3 160 357.8C213.3 358.3 266.7 349.7 320 344.7C373.3 339.7 426.7 338.3 480 365.7C533.3 393 586.7 449 640 470.7C693.3 492.3 746.7 479.7 800 461.8C853.3 444 906.7 421 933.3 409.5L960 398L960 541L933.3 541C906.7 541 853.3 541 800 541C746.7 541 693.3 541 640 541C586.7 541 533.3 541 480 541C426.7 541 373.3 541 320 541C266.7 541 213.3 541 160 541C106.7 541 53.3 541 26.7 541L0 541Z" fill="#00ff33"></path></svg>