<svg id="visual" viewBox="0 0 960 540" width="960" height="540" xmlns="http://www.w3.org/2000/svg" xmlns:xlink="http://www.w3.org/1999/xlink" version="1.1"><rect x="0" y="0" width="960" height="540" fill="none"></rect><path d="M0 324L26.7 337.3C53.3 350.7 106.7 377.3 160 356.3C213.3 335.3 266.7 266.7 320 239.2C373.3 211.7 426.7 225.3 480 235.3C533.3 245.3 586.7 251.7 640 270C693.3 288.3 746.7 318.7 800 321.5C853.3 324.3 906.7 299.7 933.3 287.3L960 275L960 541L933.3 541C906.7 541 853.3 541 800 541C746.7 541 693.3 541 640 541C586.7 541 533.3 541 480 541C426.7 541 373.3 541 320 541C266.7 541 213.3 541 160 541C106.7 541 53.3 541 26.7 541L0 541Z" fill="#ff00ee"></path><path d="M0 347L26.7 359.3C53.3 371.7 106.7 396.3 160 392.7C213.3 389 266.7 357 320 352.8C373.3 348.7 426.7 372.3 480 382C533.3 391.7 586.7 387.3 640 389C693.3 390.7 746.7 398.3 800 419.2C853.3 440 906.7 474 933.3 491L960 508L960 541L933.3 541C906.7 541 853.3 541 800 541C746.7 541 693.3 541 640 541C586.7 541 533.3 541 480 541C426.7 541 373.3 541 320 541C266.7 541 213.3 541 160 541C106.7 541 53.3 541 26.7 541L0 541Z" fill="#00ff33"></path></svg>