<svg id="visual" viewBox="0 0 960 540" width="960" height="540" xmlns="http://www.w3.org/2000/svg" xmlns:xlink="http://www.w3.org/1999/xlink" version="1.1"><rect x="0" y="0" width="960" height="540" fill="none"></rect><path d="M0 384L26.7 371C53.3 358 106.7 332 160 336.8C213.3 341.7 266.7 377.3 320 373.8C373.3 370.3 426.7 327.7 480 302.8C533.3 278 586.7 271 640 253.5C693.3 236 746.7 208 800 199.7C853.3 191.3 906.7 202.7 933.3 208.3L960 214L960 541L933.3 541C906.7 541 853.3 541 800 541C746.7 541 693.3 541 640 541C586.7 541 533.3 541 480 541C426.7 541 373.3 541 320 541C266.7 541 213.3 541 160 541C106.7 541 53.3 541 26.7 541L0 541Z" fill="#ff00ee"></path><path d="M0 360L26.7 355.5C53.3 351 106.7 342 160 367.8C213.3 393.7 266.7 454.3 320 458.2C373.3 462 426.7 409 480 405.7C533.3 402.3 586.7 448.7 640 444.3C693.3 440 746.7 385 800 357.8C853.3 330.7 906.7 331.3 933.3 331.7L960 332L960 541L933.3 541C906.7 541 853.3 541 800 541C746.7 541 693.3 541 640 541C586.7 541 533.3 541 480 541C426.7 541 373.3 541 320 541C266.7 541 213.3 541 160 541C106.7 541 53.3 541 26.7 541L0 541Z" fill="#00ff33"></path></svg>